<?xml version="1.0" standalone="no"?>
<!DOCTYPE svg PUBLIC "-//W3C//DTD SVG 20010904//EN"
 "http://www.w3.org/TR/2001/REC-SVG-20010904/DTD/svg10.dtd">
<svg version="1.0" xmlns="http://www.w3.org/2000/svg"
 width="1080.000000pt" height="1080.000000pt" viewBox="0 0 1080.000000 1080.000000"
 preserveAspectRatio="xMidYMid meet">

<g transform="translate(0.000000,1080.000000) scale(0.100000,-0.100000)"
fill="#000000" stroke="none">
<path d="M0 5400 l0 -5400 5400 0 5400 0 0 5400 0 5400 -5400 0 -5400 0 0
-5400z m2050 1085 l0 -235 -280 0 -280 0 0 235 0 235 280 0 280 0 0 -235z
m6270 -175 l0 -410 73 74 c114 116 267 176 445 176 139 -1 247 -38 329 -113
56 -52 84 -94 111 -172 37 -104 42 -196 42 -751 l0 -534 -280 0 -279 0 -3 478
c-3 541 -2 530 -83 577 -81 48 -171 26 -263 -65 -95 -93 -92 -75 -92 -563 l0
-427 -277 0 -278 0 2 172 2 173 -21 -30 c-44 -60 -195 -201 -251 -234 -216
-127 -563 -148 -820 -49 -221 85 -397 279 -462 511 l-16 57 -510 0 c-280 0
-509 -4 -509 -8 0 -38 36 -117 67 -147 117 -114 382 -92 463 39 12 20 24 36
26 36 11 0 457 -130 462 -134 2 -3 -17 -36 -42 -75 -100 -149 -269 -264 -471
-317 -107 -29 -399 -26 -510 4 -300 82 -512 302 -571 594 -13 62 -15 112 -11
203 23 492 381 799 900 772 319 -17 573 -171 700 -425 l41 -83 28 61 c97 214
294 368 546 427 104 24 356 24 457 0 158 -39 269 -99 376 -206 41 -42 87 -92
102 -111 l26 -35 1 473 0 472 275 0 275 0 0 -410z m-4032 53 l2 -243 150 0
150 0 0 -210 0 -210 -150 0 -150 0 0 -282 c0 -312 2 -321 60 -351 41 -21 109
-16 197 14 31 10 57 18 59 16 1 -1 25 -100 52 -219 l49 -217 -71 -26 c-157
-59 -244 -77 -393 -82 -114 -4 -156 -2 -213 12 -131 32 -222 111 -274 239 -20
48 -21 72 -24 474 l-3 422 -95 0 -94 0 0 210 0 210 95 0 95 0 0 245 0 245 278
-2 277 -3 3 -242z m-2238 -1013 l0 -770 -280 0 -280 0 0 770 0 770 280 0 280
0 0 -770z m1010 40 l0 -250 -459 0 -460 0 -1 243 c0 134 3 246 6 250 4 4 211
7 461 7 l453 0 0 -250z m3982 -883 c66 -29 98 -84 98 -170 -1 -119 -86 -207
-202 -207 l-28 0 0 -75 c0 -85 -4 -89 -96 -83 l-49 3 -3 269 c-2 209 1 272 10
278 19 14 231 1 270 -15z m1038 -37 l0 -60 -70 0 -70 0 0 60 0 60 70 0 70 0 0
-60z m968 -62 c3 -36 5 -38 37 -38 38 0 50 -21 43 -76 -2 -25 -8 -29 -35 -32
l-33 -3 0 -145 0 -144 -75 0 -75 0 0 145 0 145 -26 0 c-24 0 -25 2 -22 53 3
45 6 52 26 55 18 3 22 10 22 36 0 18 3 36 7 40 4 4 34 6 68 4 l60 -3 3 -37z
m-1737 -65 l23 -28 28 28 c24 24 34 28 75 25 43 -3 48 -6 51 -28 2 -14 -3 -44
-10 -65 -12 -36 -17 -40 -42 -37 -16 2 -33 -3 -37 -10 -5 -7 -9 -68 -9 -135
l0 -123 -32 -1 c-50 -2 -102 2 -108 8 -3 2 -3 60 -2 129 l4 124 -26 10 c-22 8
-26 16 -26 50 0 60 14 80 55 80 24 0 40 -7 56 -27z m468 12 c94 -48 128 -200
68 -308 -31 -56 -79 -82 -152 -82 -118 0 -180 71 -180 205 0 90 26 145 84 178
43 26 138 29 180 7z m301 -212 c0 -211 -2 -230 -20 -261 -25 -41 -78 -64 -146
-65 -69 -2 -104 21 -104 68 0 27 4 35 18 35 9 0 33 5 54 10 52 15 58 41 58
256 l0 184 70 0 70 0 0 -227z m329 209 c62 -34 86 -107 57 -177 -19 -44 -61
-65 -131 -65 -48 0 -56 -3 -53 -17 3 -15 14 -18 58 -18 30 0 64 4 76 8 16 6
23 2 32 -18 27 -59 5 -83 -94 -100 -94 -15 -190 46 -214 135 -28 104 20 227
100 259 42 17 132 13 169 -7z m396 -3 c23 -19 26 -27 20 -56 -9 -50 -26 -83
-43 -83 -7 0 -25 9 -39 20 -31 24 -37 25 -57 4 -22 -22 -21 -107 1 -129 13
-13 27 -16 65 -11 52 7 49 10 61 -67 6 -40 -27 -59 -106 -61 -75 -1 -122 25
-157 85 -58 104 -20 264 74 305 51 22 148 18 181 -7z m-3015 -2066 c132 -38
212 -85 316 -188 77 -76 98 -104 132 -175 51 -109 65 -170 64 -289 -1 -108
-23 -197 -75 -296 -39 -74 -179 -217 -259 -264 -234 -137 -562 -137 -796 0
-31 19 -96 73 -143 120 -71 70 -94 101 -127 170 -50 105 -64 167 -64 279 0
112 14 174 64 280 34 70 56 100 127 170 99 98 182 150 296 186 157 49 311 51
465 7z"/>
<path d="M5314 5731 c-53 -24 -111 -93 -129 -155 -8 -27 -15 -53 -15 -58 0 -4
115 -8 255 -8 140 0 255 4 255 8 0 5 -7 31 -15 58 -18 62 -72 126 -128 153
-57 27 -165 28 -223 2z"/>
<path d="M7496 5644 l-248 -76 -37 35 c-59 57 -97 72 -181 72 -85 0 -133 -20
-187 -77 -60 -63 -78 -118 -78 -248 0 -140 20 -196 95 -263 101 -91 239 -91
340 0 l49 44 248 -76 c137 -41 254 -75 261 -75 9 0 12 84 12 370 0 290 -3 370
-12 369 -7 0 -125 -34 -262 -75z"/>
<path d="M6910 4325 c0 -71 9 -80 51 -47 44 36 21 112 -33 112 -16 0 -18 -9
-18 -65z"/>
<path d="M7661 4221 c-15 -27 -14 -83 2 -105 8 -11 23 -17 37 -14 53 7 51 130
-2 136 -18 2 -30 -3 -37 -17z"/>
<path d="M8287 4243 c-4 -3 -7 -17 -7 -30 0 -16 6 -23 19 -23 26 0 52 27 45
45 -6 15 -45 21 -57 8z"/>
<path d="M5430 1783 l0 -418 137 2 c76 1 144 3 151 3 9 0 12 90 12 415 l0 415
-150 0 -150 0 0 -417z"/>
<path d="M5430 1170 l0 -130 150 0 151 0 -3 128 -3 127 -147 3 -148 3 0 -131z"/>
</g>
</svg>
