<?xml version="1.0" standalone="no"?>
<!DOCTYPE svg PUBLIC "-//W3C//DTD SVG 20010904//EN"
 "http://www.w3.org/TR/2001/REC-SVG-20010904/DTD/svg10.dtd">
<svg version="1.0" xmlns="http://www.w3.org/2000/svg"
 width="1080.000000pt" height="1080.000000pt" viewBox="0 0 1080.000000 1080.000000"
 preserveAspectRatio="xMidYMid meet">
<metadata>
Created by potrace 1.11, written by Peter Selinger 2001-2013
</metadata>
<g transform="translate(0.000000,1080.000000) scale(0.100000,-0.100000)"
fill="#000000" stroke="none">
<path d="M0 5400 l0 -5400 5400 0 5400 0 0 5400 0 5400 -5400 0 -5400 0 0
-5400z m5790 -3117 c132 -38 212 -85 316 -188 77 -76 98 -104 132 -175 51
-109 65 -170 64 -289 -1 -108 -23 -197 -75 -296 -39 -74 -179 -217 -259 -264
-234 -137 -562 -137 -796 0 -31 19 -96 73 -143 120 -71 70 -94 101 -127 170
-50 105 -64 167 -64 279 0 112 14 174 64 280 34 70 56 100 127 170 99 98 182
150 296 186 157 49 311 51 465 7z"/>
<path d="M5430 1783 l0 -418 137 2 c76 1 144 3 151 3 9 0 12 90 12 415 l0 415
-150 0 -150 0 0 -417z"/>
<path d="M5430 1170 l0 -130 150 0 151 0 -3 128 -3 127 -147 3 -148 3 0 -131z"/>
</g>
</svg>
